<?xml version="1.0" encoding="UTF-8"?>
<svg version="1.1" xmlns="http://www.w3.org/2000/svg" width="477" height="273">
<path d="M0 0 C157.41 0 314.82 0 477 0 C477 90.09 477 180.18 477 273 C319.59 273 162.18 273 0 273 C0 182.91 0 92.82 0 0 Z " fill="#000100" transform="translate(0,0)"/>
<path d="M0 0 C41.58 0 83.16 0 126 0 C126 7.01716615 125.70701188 11.12914858 123.3125 17.3125 C122.90366577 18.41924072 122.90366577 18.41924072 122.48657227 19.54833984 C120.54815951 24.73964973 118.41830373 29.84280622 116.23046875 34.93359375 C114.48413147 39.28557713 113.03608622 43.72380906 111.61108398 48.18994141 C110.09636858 52.90363142 110.09636858 52.90363142 109 54 C108.72238784 55.89198719 108.47900885 57.78901666 108.25 59.6875 C107.15100615 67.2151947 104.69570681 73.91950427 102 81 C101.2028321 83.37123672 100.4319645 85.74828373 99.67578125 88.1328125 C98.93451958 90.18092277 98.00751457 92.07071678 97 94 C96.01 94 95.02 94 94 94 C94 94.99 94 95.98 94 97 C62.32 97 30.64 97 -2 97 C-2 94.03 -2 91.06 -2 88 C-1.01 88 -0.02 88 1 88 C1 86.68 1 85.36 1 84 C30.04 83.67 59.08 83.34 89 83 C90.88594216 75.45623135 92.74963864 67.93610879 94.37304688 60.3359375 C95.70338539 54.45795646 97.6818529 49.79536776 100 44 C103.3 33.77 106.6 23.54 110 13 C72.38 13 34.76 13 -4 13 C-4 9.7 -4 6.4 -4 3 C-2.68 3 -1.36 3 0 3 C0 2.01 0 1.02 0 0 Z " fill="#48BB51" transform="translate(229,29)"/>
<path d="M0 0 C19.47 0 38.94 0 59 0 C61.4466406 7.33992179 63.15991006 12.63743594 64.34277344 19.875 C65.82190159 26.9080016 68.34213406 33.69458377 70.625 40.5 C71.39941372 42.81938835 72.1716233 45.13943445 72.93856812 47.46130371 C73.41251377 48.89520215 73.89086285 50.32765467 74.37417603 51.75842285 C75.32825274 54.63696852 76 56.94445131 76 60 C76.66 60 77.32 60 78 60 C80.73068486 67.72304382 83.20907386 75.16923003 84.46484375 83.2890625 C85.29980807 87.51873575 86.75051419 91.5114796 88.1953125 95.56640625 C89 98 89 98 89 100 C121.01 100 153.02 100 186 100 C186 102.97 186 105.94 186 109 C185.01 109 184.02 109 183 109 C183 110.32 183 111.64 183 113 C148.68 113 114.36 113 79 113 C77.02 106.07 75.04 99.14 73 92 C71.68328667 87.73337454 70.35523504 83.48009024 68.9765625 79.234375 C68.62669281 78.14699036 68.27682312 77.05960571 67.91635132 75.93927002 C66.82245135 72.54179917 65.72390329 69.14585538 64.625 65.75 C63.90071799 63.5040106 63.17675877 61.25791709 62.453125 59.01171875 C61.02156681 54.56952981 59.5897394 50.12742807 58.15722656 45.68554688 C57.80519165 44.59395264 57.45315674 43.5023584 57.0904541 42.37768555 C56.34236091 40.06046418 55.5932004 37.74358719 54.84313965 35.42700195 C53.71317329 31.93653242 52.58677347 28.44492859 51.4609375 24.953125 C51.11269928 23.88084656 50.76446106 22.80856812 50.40567017 21.70379639 C50.08923553 20.72034241 49.7728009 19.73688843 49.44677734 18.72363281 C49.16651703 17.85700012 48.88625671 16.99036743 48.59750366 16.09747314 C48 14 48 14 48 12 C31.17 12 14.34 12 -3 12 C-3 9.36 -3 6.72 -3 4 C-2.01 4 -1.02 4 0 4 C0 2.68 0 1.36 0 0 Z " fill="#49C052" transform="translate(136,29)"/>
<path d="M0 0 C3.96 0 7.92 0 12 0 C14.72297738 3.04960531 16.00005299 4.87116894 17.625 8.4375 C18.42639197 10.02120318 19.23092386 11.60332264 20.0390625 13.18359375 C20.37115723 13.89056396 20.70325195 14.59753418 21.04541016 15.32592773 C21.89732823 17.18010507 21.89732823 17.18010507 24 18 C24.38478516 16.69482422 24.38478516 16.69482422 24.77734375 15.36328125 C26.02486353 11.93160544 27.56536273 9.23532327 29.5625 6.1875 C30.18253906 5.23230469 30.80257813 4.27710938 31.44140625 3.29296875 C33 1 33 1 34 0 C37.96 0 41.92 0 46 0 C46 14.85 46 29.7 46 45 C42.04 45 38.08 45 34 45 C33.67 37.74 33.34 30.48 33 23 C30.36 27.62 27.72 32.24 25 37 C20 36 20 36 17.76171875 32.83984375 C17.04992902 31.55010353 16.36255771 30.24684012 15.6875 28.9375 C14.470625 26.648125 13.25375 24.35875 12 22 C11.67 29.59 11.34 37.18 11 45 C7.37 45 3.74 45 0 45 C0 30.15 0 15.3 0 0 Z " fill="#F0B400" transform="translate(258,205)"/>
<path d="M0 0 C7.92 0 15.84 0 24 0 C24 0.66 24 1.32 24 2 C24.763125 2.28875 25.52625 2.5775 26.3125 2.875 C29 4 29 4 32 6 C33.77994092 10.56639604 33.43472682 15.95169042 33.71875 20.78515625 C33.87584879 24.01478796 33.87584879 24.01478796 35 27 C35.48686297 31.04096262 35.92008507 35.15982985 34.05859375 38.8828125 C30.88770799 42.83896464 27.2154079 45.73641842 22.13745117 46.34057617 C21.11627197 46.32486572 20.09509277 46.30915527 19.04296875 46.29296875 C18.04031982 46.28547607 17.0376709 46.2779834 16.00463867 46.27026367 C14.74498291 46.24295166 13.48532715 46.21563965 12.1875 46.1875 C8.165625 46.125625 4.14375 46.06375 0 46 C0 30.82 0 15.64 0 0 Z " fill="#30AF37" transform="translate(33,204)"/>
<path d="M0 0 C35.64 0 71.28 0 108 0 C108 2.97 108 5.94 108 9 C106.68 9 105.36 9 104 9 C104 10.32 104 11.64 104 13 C68.69 13 33.38 13 -3 13 C-3 10.03 -3 7.06 -3 4 C-2.01 4 -1.02 4 0 4 C0 2.68 0 1.36 0 0 Z " fill="#49C051" transform="translate(86,99)"/>
<path d="M0 0 C3.96 0 7.92 0 12 0 C12 15.18 12 30.36 12 46 C8.7 46 5.4 46 2 46 C-0.45446879 43.35623231 -1.72980407 41.60483655 -3.3125 38.5 C-3.70244141 37.80390625 -4.09238281 37.1078125 -4.49414062 36.390625 C-5.23814359 35.06248748 -5.96682068 33.72553211 -6.6730957 32.37695312 C-8.64778351 28.83959148 -10.85286189 25.43542098 -13 22 C-13.33 29.92 -13.66 37.84 -14 46 C-17.63 46 -21.26 46 -25 46 C-25 31.15 -25 16.3 -25 1 C-21.04 1 -17.08 1 -13 1 C-9.9492597 4.3394935 -8.26934224 6.62131805 -6.25 10.5 C-5.47269531 11.85931641 -5.47269531 11.85931641 -4.6796875 13.24609375 C-3.41276757 15.47493437 -2.20072101 17.73481001 -1 20 C-0.67 13.4 -0.34 6.8 0 0 Z " fill="#31B339" transform="translate(173,204)"/>
<path d="M0 0 C4.021875 -0.0825 8.04375 -0.165 12.1875 -0.25 C13.44715576 -0.28641602 14.70681152 -0.32283203 16.00463867 -0.36035156 C17.50861206 -0.37533691 17.50861206 -0.37533691 19.04296875 -0.390625 C20.06414795 -0.41157227 21.08532715 -0.43251953 22.13745117 -0.45410156 C25.75670352 0.12003996 27.38484925 1.48713224 30 4 C32.10687355 7.79362647 32.17029983 10.90339502 32 15.1875 C31.83265456 18.26855661 31.83265456 18.26855661 32 21 C32.66 21.66 33.32 22.32 34 23 C34.71148619 28.89517128 33.78706999 32.23194279 30.6796875 37.23828125 C27.66153676 40.40383005 24.75442725 41.84506399 20.35986328 42.2331543 C17.27421937 42.29515059 14.21064548 42.26102972 11.125 42.1875 C7.45375 42.125625 3.7825 42.06375 0 42 C0 28.14 0 14.28 0 0 Z " fill="#F3B654" transform="translate(258,55)"/>
<path d="M0 0 C25.15151515 0 25.15151515 0 32.5 6.0625 C34.79016439 10.54740525 34.6335316 15.05698016 34 20 C32.74856526 23.31571727 32.07820572 23.94786285 29 26 C29.96584848 31.8332165 31.07259002 35.43913679 35 40 C35.38915559 41.65452314 35.73049256 43.32182998 36 45 C25.00390407 45.77802566 25.00390407 45.77802566 21.5 43.0625 C20.63645501 41.29942898 19.80456163 39.51835481 19.06640625 37.69921875 C18.73511719 36.89097656 18.40382813 36.08273438 18.0625 35.25 C17.64677734 34.08210938 17.64677734 34.08210938 17.22265625 32.890625 C16.81917969 32.26671875 16.41570312 31.6428125 16 31 C14.35 30.67 12.7 30.34 11 30 C11 34.95 11 39.9 11 45 C7.37 45 3.74 45 0 45 C0 30.15 0 15.3 0 0 Z " fill="#F4B600" transform="translate(370,205)"/>
<path d="M0 0 C3.96 0 7.92 0 12 0 C12.33 4.95 12.66 9.9 13 15 C13.63164062 13.989375 14.26328125 12.97875 14.9140625 11.9375 C21.92297546 1.50185974 21.92297546 1.50185974 27.84765625 0.0703125 C31.32783843 0.11987766 34.57925997 0.37078359 38 1 C33.73796376 7.68364774 29.03409271 13.87987207 24 20 C25.29451766 23.6148347 26.82098455 26.33206366 29.22265625 29.3203125 C29.84333984 30.10277344 30.46402344 30.88523438 31.10351562 31.69140625 C32.07321289 32.89603516 32.07321289 32.89603516 33.0625 34.125 C34.34881962 35.72875628 35.63154372 37.33540494 36.91015625 38.9453125 C37.76299194 40.00516357 37.76299194 40.00516357 38.63305664 41.08642578 C40 43 40 43 41 46 C36.1730679 46.6711605 31.80054241 46.94876456 27 46 C23.44102259 42.79852107 21.36549085 39.11726494 19 35 C17.53715157 33.16867493 17.53715157 33.16867493 16 32 C15.34 32 14.68 32 14 32 C12.64908472 34.70183055 12.66141942 37.11808206 12.4375 40.125 C12.293125 42.06375 12.14875 44.0025 12 46 C8.04 46 4.08 46 0 46 C0 30.82 0 15.64 0 0 Z " fill="#30AF37" transform="translate(200,204)"/>
<path d="M0 0 C4.29 0 8.58 0 13 0 C15.00420431 4.43034638 16.69986824 8.91180253 18.3125 13.5 C21.31272904 22.00064894 24.55744048 30.42512164 28.17578125 38.68359375 C29 41 29 41 29 45 C25.04 45 21.08 45 17 45 C16.01 42.69 15.02 40.38 14 38 C9.05 37.67 4.1 37.34 -1 37 C-1.33 38.98 -1.66 40.96 -2 43 C-4 45 -4 45 -6.6015625 45.1953125 C-8.09816406 45.16050781 -8.09816406 45.16050781 -9.625 45.125 C-10.62789063 45.10695312 -11.63078125 45.08890625 -12.6640625 45.0703125 C-13.82035156 45.03550781 -13.82035156 45.03550781 -15 45 C-14.24664557 39.0240669 -12.42119005 33.41378358 -10.625 27.6875 C-10.16867187 26.16672852 -10.16867187 26.16672852 -9.703125 24.61523438 C-9.40148437 23.65294922 -9.09984375 22.69066406 -8.7890625 21.69921875 C-8.51787598 20.82096436 -8.24668945 19.94270996 -7.96728516 19.0378418 C-7.64808105 18.365354 -7.32887695 17.69286621 -7 17 C-6.01 16.67 -5.02 16.34 -4 16 C-3.26240572 14.13103708 -3.26240572 14.13103708 -2.9375 11.875 C-2.16639646 7.82508644 -1.17662744 3.95010642 0 0 Z " fill="#F2B500" transform="translate(330,205)"/>
<path d="M0 0 C19.47 0 38.94 0 59 0 C63 12 63 12 62 16 C60.35 11.38 58.7 6.76 57 2 C38.52 1.67 20.04 1.34 1 1 C1 3.64 1 6.28 1 9 C17.83 9 34.66 9 52 9 C57.46654635 25.23645855 62.85820868 41.49279296 68.07632446 57.81082153 C68.64429515 59.58441412 69.21453753 61.35728106 69.78720093 63.12936401 C72.76317714 72.34807339 75.53595106 81.44084819 77.34326172 90.9699707 C78.28196251 95.30090582 79.72655024 99.41168774 81.23046875 103.57421875 C82 106 82 106 82 109 C115.33 109 148.66 109 183 109 C183 110.32 183 111.64 183 113 C148.68 113 114.36 113 79 113 C77.02 106.07 75.04 99.14 73 92 C71.68328667 87.73337454 70.35523504 83.48009024 68.9765625 79.234375 C68.62669281 78.14699036 68.27682312 77.05960571 67.91635132 75.93927002 C66.82245135 72.54179917 65.72390329 69.14585538 64.625 65.75 C63.90071799 63.5040106 63.17675877 61.25791709 62.453125 59.01171875 C61.02156681 54.56952981 59.5897394 50.12742807 58.15722656 45.68554688 C57.80519165 44.59395264 57.45315674 43.5023584 57.0904541 42.37768555 C56.34236091 40.06046418 55.5932004 37.74358719 54.84313965 35.42700195 C53.71317329 31.93653242 52.58677347 28.44492859 51.4609375 24.953125 C51.11269928 23.88084656 50.76446106 22.80856812 50.40567017 21.70379639 C50.08923553 20.72034241 49.7728009 19.73688843 49.44677734 18.72363281 C49.16651703 17.85700012 48.88625671 16.99036743 48.59750366 16.09747314 C48 14 48 14 48 12 C31.17 12 14.34 12 -3 12 C-3 9.36 -3 6.72 -3 4 C-2.01 4 -1.02 4 0 4 C0 2.68 0 1.36 0 0 Z " fill="#40736C" transform="translate(136,29)"/>
<path d="M0 0 C25.41 0 50.82 0 77 0 C77 2.97 77 5.94 77 9 C75.35 9 73.7 9 72 9 C72 10.32 72 11.64 72 13 C47.25 13 22.5 13 -3 13 C-3 10.03 -3 7.06 -3 4 C-2.01 4 -1.02 4 0 4 C0 2.68 0 1.36 0 0 Z " fill="#49C152" transform="translate(105,58)"/>
<path d="M0 0 C25.08 0 50.16 0 76 0 C76 2.97 76 5.94 76 9 C74.68 9.33 73.36 9.66 72 10 C72 10.99 72 11.98 72 13 C47.25 13 22.5 13 -3 13 C-3 9.7 -3 6.4 -3 3 C-2.01 3 -1.02 3 0 3 C0 2.01 0 1.02 0 0 Z " fill="#48BE51" transform="translate(125,119)"/>
<path d="M0 0 C10.89 0 21.78 0 33 0 C33 3.63 33 7.26 33 11 C29.7 11 26.4 11 23 11 C23 22.22 23 33.44 23 45 C19.04 45 15.08 45 11 45 C11 33.45 11 21.9 11 10 C7.37 10 3.74 10 0 10 C0 6.7 0 3.4 0 0 Z " fill="#EBB000" transform="translate(415,205)"/>
<path d="M0 0 C3.96 0 7.92 0 12 0 C12 11.22 12 22.44 12 34 C17.61 34 23.22 34 29 34 C29 37.63 29 41.26 29 45 C19.43 45 9.86 45 0 45 C0 30.15 0 15.3 0 0 Z " fill="#2FAA36" transform="translate(80,205)"/>
<path d="M0 0 C14.19 0 28.38 0 43 0 C43 2.97 43 5.94 43 9 C42.01 9 41.02 9 40 9 C40 9.99 40 10.98 40 12 C25.48 12 10.96 12 -4 12 C-4 9.03 -4 6.06 -4 3 C-2.68 3 -1.36 3 0 3 C0 2.01 0 1.02 0 0 Z " fill="#49BE52" transform="translate(144,79)"/>
<path d="M0 0 C3.96 0 7.92 0 12 0 C12 14.85 12 29.7 12 45 C8.04 45 4.08 45 0 45 C0 30.15 0 15.3 0 0 Z " fill="#2EA936" transform="translate(121,205)"/>
<path d="M0 0 C0.99 0 1.98 0 3 0 C3 1.65 3 3.3 3 5 C37.32 5 71.64 5 107 5 C107 6.32 107 7.64 107 9 C71.69 9 36.38 9 0 9 C0 6.03 0 3.06 0 0 Z " fill="#375E60" transform="translate(83,103)"/>
<path d="M0 0 C1.32 0.33 2.64 0.66 4 1 C3.01 1 2.02 1 1 1 C1 3.64 1 6.28 1 9 C38.95 9 76.9 9 116 9 C114.87490232 19.12587914 114.87490232 19.12587914 113.80078125 22.40234375 C113.56399658 23.13815674 113.32721191 23.87396973 113.08325195 24.63208008 C112.82890381 25.39286865 112.57455566 26.15365723 112.3125 26.9375 C112.04848389 27.75307373 111.78446777 28.56864746 111.51245117 29.40893555 C110.17106553 33.53313071 108.78485447 37.64094823 107.375 41.7421875 C106.85329315 43.26532608 106.33244555 44.78875927 105.8125 46.3125 C105.55911865 47.05491943 105.3057373 47.79733887 105.04467773 48.56225586 C103.14590382 54.25605849 101.87108714 59.97259747 100.71484375 65.86328125 C99.38842121 71.68359437 97.31052001 77.03421999 94 82 C91.15899567 82.28618725 88.53689419 82.37815744 85.69482422 82.34057617 C84.83621796 82.34101425 83.97761169 82.34145233 83.09298706 82.34190369 C80.24665822 82.33980874 77.40091381 82.31644467 74.5546875 82.29296875 C72.58456748 82.2873753 70.6144433 82.28310402 68.64431763 82.28010559 C63.4524997 82.26863705 58.26093254 82.23915262 53.06921387 82.20599365 C47.77404167 82.17533601 42.47882906 82.16160948 37.18359375 82.14648438 C26.78895217 82.11428482 16.39449692 82.06306426 6 82 C5.67 82.99 5.34 83.98 5 85 C5 83.68 5 82.36 5 81 C34.04 80.67 63.08 80.34 93 80 C94.88594216 72.45623135 96.74963864 64.93610879 98.37304688 57.3359375 C99.70338539 51.45795646 101.6818529 46.79536776 104 41 C107.3 30.77 110.6 20.54 114 10 C76.38 10 38.76 10 0 10 C0 6.7 0 3.4 0 0 Z " fill="#21383A" transform="translate(225,32)"/>
<path d="M0 0 C25.41 0 50.82 0 77 0 C77 2.97 77 5.94 77 9 C76.67 9 76.34 9 76 9 C76 6.36 76 3.72 76 1 C51.25 1 26.5 1 1 1 C1 3.64 1 6.28 1 9 C24.43 9 47.86 9 72 9 C72 10.32 72 11.64 72 13 C47.25 13 22.5 13 -3 13 C-3 10.03 -3 7.06 -3 4 C-2.01 4 -1.02 4 0 4 C0 2.68 0 1.36 0 0 Z " fill="#3B735E" transform="translate(105,58)"/>
<path d="M0 0 C0.99 0 1.98 0 3 0 C3 1.65 3 3.3 3 5 C40.62 5 78.24 5 117 5 C117 7.31 117 9.62 117 12 C116.34 12.66 115.68 13.32 115 14 C115 12.02 115 10.04 115 8 C77.05 8 39.1 8 0 8 C0 5.36 0 2.72 0 0 Z " fill="#42786F" transform="translate(226,33)"/>
<path d="M0 0 C0.33 0 0.66 0 1 0 C1 2.97 1 5.94 1 9 C25.42 9 49.84 9 75 9 C74.01 9.33 73.02 9.66 72 10 C72 10.99 72 11.98 72 13 C47.25 13 22.5 13 -3 13 C-3 9.7 -3 6.4 -3 3 C-2.01 3 -1.02 3 0 3 C0 2.01 0 1.02 0 0 Z " fill="#3C6C65" transform="translate(125,119)"/>
<path d="M0 0 C0.99 0 1.98 0 3 0 C3 1.98 3 3.96 3 6 C33.69 6 64.38 6 96 6 C96 6.99 96 7.98 96 9 C64.32 9 32.64 9 0 9 C0 6.03 0 3.06 0 0 Z " fill="#417070" transform="translate(227,117)"/>
<path d="M0 0 C3 2 3 2 3.46875 3.953125 C3.52693671 8.22984792 3.40674964 11.10922825 0.625 14.5 C-2.97830479 17.93171884 -5.01250672 18.3593408 -10.0234375 18.27734375 C-12 18 -12 18 -14.5 16.375 C-16 14 -16 14 -16.75 11.25 C-14.81557323 2.86748401 -8.20693216 -1.39100545 0 0 Z " fill="#48BC51" transform="translate(300,145)"/>
<path d="M0 0 C3.06637864 1.99314611 3.80523321 3.22093283 4.6875 6.75 C3.63389001 11.73070177 1.0796047 14.98302458 -3 18 C-6.20478989 18.87933078 -8.79248616 18.85149569 -12 18 C-14.87670645 15.82067693 -14.95815664 14.22176982 -15.625 10.6875 C-14.86011187 6.17466006 -13.42075891 4.34204758 -10.07421875 1.328125 C-6.44409735 -0.99624652 -4.22229057 -0.76139666 0 0 Z " fill="#47BB50" transform="translate(245,145)"/>
<path d="M0 0 C19.47 0 38.94 0 59 0 C63 12 63 12 62 16 C60.35 11.38 58.7 6.76 57 2 C38.52 1.67 20.04 1.34 1 1 C1 3.97 1 6.94 1 10 C16.18 10 31.36 10 47 10 C47 10.66 47 11.32 47 12 C30.5 12 14 12 -3 12 C-3 9.36 -3 6.72 -3 4 C-2.01 4 -1.02 4 0 4 C0 2.68 0 1.36 0 0 Z " fill="#3B7958" transform="translate(136,29)"/>
<path d="M0 0 C1.48819131 4.60114037 -0.14679355 8.008432 -1.75 12.375 C-3.75263479 18.05620093 -5.46812264 23.58562696 -6.625 29.5 C-8.00619164 36.53672191 -10.0023986 43.0035979 -14 49 C-16.84100433 49.28618725 -19.46310581 49.37815744 -22.30517578 49.34057617 C-23.16378204 49.34101425 -24.02238831 49.34145233 -24.90701294 49.34190369 C-27.75334178 49.33980874 -30.59908619 49.31644467 -33.4453125 49.29296875 C-35.41543252 49.2873753 -37.3855567 49.28310402 -39.35568237 49.28010559 C-44.5475003 49.26863705 -49.73906746 49.23915262 -54.93078613 49.20599365 C-60.22595833 49.17533601 -65.52117094 49.16160948 -70.81640625 49.14648438 C-81.21104783 49.11428482 -91.60550308 49.06306426 -102 49 C-102.33 49.99 -102.66 50.98 -103 52 C-103 50.68 -103 49.36 -103 48 C-59.44 47.505 -59.44 47.505 -15 47 C-14.01 43.04 -13.02 39.08 -12 35 C-10.25585064 28.02340257 -8.12547217 21.6762811 -5.2734375 15.08203125 C-3.23514204 10.14885603 -1.61387221 5.08504986 0 0 Z " fill="#316B48" transform="translate(333,65)"/>
<path d="M0 0 C7.92 0 15.84 0 24 0 C24 0.33 24 0.66 24 1 C16.41 1 8.82 1 1 1 C1 14.86 1 28.72 1 43 C6.5378125 42.7834375 6.5378125 42.7834375 12.1875 42.5625 C13.3427417 42.51939697 14.4979834 42.47629395 15.68823242 42.43188477 C17.0703894 42.3747229 17.0703894 42.3747229 18.48046875 42.31640625 C19.88655396 42.26141968 19.88655396 42.26141968 21.32104492 42.20532227 C23.95114982 42.00374401 26.42766414 41.57321679 29 41 C28.67 41.66 28.34 42.32 28 43 C27.34 43 26.68 43 26 43 C26 43.66 26 44.32 26 45 C17.09 45 8.18 45 -1 45 C-1.02292284 38.91271365 -1.042846 32.82557633 -1.05493164 26.73828125 C-1.05996852 24.66633599 -1.06679825 22.5943943 -1.07543945 20.52246094 C-1.08753321 17.54881918 -1.09323467 14.57522431 -1.09765625 11.6015625 C-1.10281754 10.67131256 -1.10797882 9.74106262 -1.11329651 8.78262329 C-1.11337204 7.92188202 -1.11344757 7.06114075 -1.11352539 6.17431641 C-1.115746 5.41486725 -1.11796661 4.65541809 -1.12025452 3.87295532 C-1 2 -1 2 0 0 Z " fill="#41551C" transform="translate(257,54)"/>
<path d="M0 0 C0.99 0 1.98 0 3 0 C3 1.98 3 3.96 3 6 C16.53 6 30.06 6 44 6 C44 6.99 44 7.98 44 9 C29.48 9 14.96 9 0 9 C0 6.03 0 3.06 0 0 Z " fill="#40726E" transform="translate(140,82)"/>
<path d="M0 0 C0.66 0 1.32 0 2 0 C2 14.19 2 28.38 2 43 C4.64 43 7.28 43 10 43 C10 35.41 10 27.82 10 20 C10.33 20 10.66 20 11 20 C11 28.25 11 36.5 11 45 C7.37 45 3.74 45 0 45 C0 30.15 0 15.3 0 0 Z " fill="#2B9F33" transform="translate(148,205)"/>
<path d="M0 0 C33.33 0 66.66 0 101 0 C101 0.33 101 0.66 101 1 C94.73 1 88.46 1 82 1 C82 1.66 82 2.32 82 3 C80.35 3 78.7 3 77 3 C77 2.67 77 2.34 77 2 C60.5 2 44 2 27 2 C27 2.33 27 2.66 27 3 C25.35 3 23.7 3 22 3 C22 2.67 22 2.34 22 2 C14.74 1.67 7.48 1.34 0 1 C0 0.67 0 0.34 0 0 Z " fill="#050C09" transform="translate(216,142)"/>
<path d="M0 0 C0.33 0 0.66 0 1 0 C1 1.65 1 3.3 1 5 C34.99 5 68.98 5 104 5 C104 5.33 104 5.66 104 6 C69.35 6.33 34.7 6.66 -1 7 C-1 1 -1 1 0 0 Z " fill="#43806F" transform="translate(85,103)"/>
<path d="M0 0 C3.63 0 7.26 0 11 0 C12.39431504 2.78863007 12.25660094 4.92078868 12 8 C7.7975546 10.80163026 4.99895065 10.14489712 0 10 C0 6.7 0 3.4 0 0 Z " fill="#1C1500" transform="translate(381,215)"/>
<path d="M0 0 C4.29 0 8.58 0 13 0 C13 2.31 13 4.62 13 7 C8.71 7 4.42 7 0 7 C0 4.69 0 2.38 0 0 Z " fill="#040E04" transform="translate(45,232)"/>
<path d="M0 0 C0.33 0 0.66 0 1 0 C0.55052002 8.54011956 -2.14908583 16.01533633 -5 24 C-5.66 24 -6.32 24 -7 24 C-7.226875 25.19625 -7.45375 26.3925 -7.6875 27.625 C-9.14819347 34.2887476 -11.62240483 40.62042213 -14 47 C-14.33 47 -14.66 47 -15 47 C-15.17496508 43.36088616 -14.76597036 40.9044664 -13.2890625 37.5859375 C-10.54671253 31.06953408 -8.48833925 24.36655221 -6.375 17.625 C-5.5941724 15.13706893 -4.81044401 12.6500459 -4.0234375 10.1640625 C-3.68231934 9.07561035 -3.34120117 7.9871582 -2.98974609 6.86572266 C-2.15140887 4.43839105 -1.21922517 2.25376055 0 0 Z " fill="#2D504D" transform="translate(340,41)"/>
<path d="M0 0 C1.81242052 -0.02687279 3.62495233 -0.04633715 5.4375 -0.0625 C6.44683594 -0.07410156 7.45617188 -0.08570313 8.49609375 -0.09765625 C11 0 11 0 12 1 C12.125 3.5 12.125 3.5 12 6 C11 7 11 7 8.49609375 7.09765625 C6.98208984 7.08025391 6.98208984 7.08025391 5.4375 7.0625 C4.42558594 7.05347656 3.41367187 7.04445312 2.37109375 7.03515625 C1.58863281 7.02355469 0.80617187 7.01195312 0 7 C0 4.69 0 2.38 0 0 Z " fill="#071C09" transform="translate(44,215)"/>
<path d="M0 0 C1.81242052 -0.02687279 3.62495233 -0.04633715 5.4375 -0.0625 C6.44683594 -0.07410156 7.45617187 -0.08570312 8.49609375 -0.09765625 C11 0 11 0 12 1 C12.125 3.5 12.125 3.5 12 6 C11 7 11 7 8.49609375 7.09765625 C6.98208984 7.08025391 6.98208984 7.08025391 5.4375 7.0625 C4.42558594 7.05347656 3.41367187 7.04445313 2.37109375 7.03515625 C1.58863281 7.02355469 0.80617188 7.01195313 0 7 C0 4.69 0 2.38 0 0 Z " fill="#0E1D08" transform="translate(269,80)"/>
<path d="M0 0 C1 2 1 2 1.375 5 C1.69760368 8.30498897 1.69760368 8.30498897 5 10 C6.65549531 10.38499891 8.3222433 10.72793135 10 11 C10 11.66 10 12.32 10 13 C6.79679603 14.60160199 3.47573478 14.48770192 0 14 C-2.5 12.375 -2.5 12.375 -4 10 C-4.5 7 -4.5 7 -4 4 C-2 1.625 -2 1.625 0 0 Z " fill="#396362" transform="translate(288,149)"/>
<path d="M0 0 C0.144375 1.093125 0.28875 2.18625 0.4375 3.3125 C0.88288104 6.93122987 0.88288104 6.93122987 2 10 C4.31 10.33 6.62 10.66 9 11 C8.67 11.99 8.34 12.98 8 14 C-0.18462594 14.61770762 -0.18462594 14.61770762 -3.0625 12.4375 C-4.34672087 9.09852573 -4.38673867 6.54510445 -4 3 C-1.77419355 0 -1.77419355 0 0 0 Z " fill="#3F706B" transform="translate(234,149)"/>
<path d="M0 0 C3.63 0 7.26 0 11 0 C11.33 1.65 11.66 3.3 12 5 C11 6 11 6 8.49609375 6.09765625 C6.98208984 6.08025391 6.98208984 6.08025391 5.4375 6.0625 C4.42558594 6.05347656 3.41367187 6.04445313 2.37109375 6.03515625 C1.58863281 6.02355469 0.80617188 6.01195313 0 6 C0 4.02 0 2.04 0 0 Z " fill="#2A3A13" transform="translate(268,64)"/>
<path d="M0 0 C4.03809068 4.61496078 6 9.92852877 6 16 C2.04 16 -1.92 16 -6 16 C-6 15.34 -6 14.68 -6 14 C-1.545 13.505 -1.545 13.505 3 13 C2.2575 10.89625 2.2575 10.89625 1.5 8.75 C0.34407525 5.47487986 0 3.58063513 0 0 Z " fill="#AF8300" transform="translate(353,234)"/>
<path d="M0 0 C1 2 1 2 0.25 4.625 C-2 7 -2 7 -4.65234375 7.32421875 C-7.44993877 7.31341722 -10.21090159 7.21308901 -13 7 C-12.67 5.02 -12.34 3.04 -12 1 C-11.67 2.32 -11.34 3.64 -11 5 C-9.54052295 4.93993922 -8.08220728 4.8511311 -6.625 4.75 C-5.81289063 4.70359375 -5.00078125 4.6571875 -4.1640625 4.609375 C-1.81161073 4.2077908 -1.81161073 4.2077908 -0.7109375 1.953125 C-0.47632813 1.30859375 -0.24171875 0.6640625 0 0 Z " fill="#B58800" transform="translate(328,243)"/>
<path d="M0 0 C2.83328987 2.83328987 3.7191375 4.35446828 5 8 C3.68 7.34 2.36 6.68 1 6 C1 11.94 1 17.88 1 24 C0.67 24 0.34 24 0 24 C0 16.08 0 8.16 0 0 Z " fill="#443300" transform="translate(269,226)"/>
<path d="M0 0 C0.66 0.33 1.32 0.66 2 1 C1.01 1.33 0.02 1.66 -1 2 C-1 2.66 -1 3.32 -1 4 C-9.25 3.67 -17.5 3.34 -26 3 C-26 2.67 -26 2.34 -26 2 C-25.31897217 1.97494385 -24.63794434 1.9498877 -23.9362793 1.92407227 C-20.85316245 1.80809048 -17.77034954 1.68537384 -14.6875 1.5625 C-13.61564453 1.52318359 -12.54378906 1.48386719 -11.43945312 1.44335938 C-10.41142578 1.40146484 -9.38339844 1.35957031 -8.32421875 1.31640625 C-7.37635498 1.27974854 -6.42849121 1.24309082 -5.4519043 1.20532227 C-2.863829 1.08569813 -2.863829 1.08569813 0 0 Z " fill="#36541B" transform="translate(284,95)"/>
<path d="M0 0 C3 3.625 3 3.625 3 7 C-0.96 7 -4.92 7 -9 7 C-9.33 6.34 -9.66 5.68 -10 5 C-6.7 4.67 -3.4 4.34 0 4 C0 2.68 0 1.36 0 0 Z " fill="#B68900" transform="translate(403,243)"/>
<path d="M0 0 C0.33 0 0.66 0 1 0 C1 7.59 1 15.18 1 23 C0.67 23 0.34 23 0 23 C-0.33 17.39 -0.66 11.78 -1 6 C-1.66 6 -2.32 6 -3 6 C-1.125 1.125 -1.125 1.125 0 0 Z " fill="#271D00" transform="translate(291,227)"/>
<path d="M0 0 C0.66 0 1.32 0 2 0 C2.66 2.64 3.32 5.28 4 8 C2.02 8 0.04 8 -2 8 C-1.34 5.36 -0.68 2.72 0 0 Z " fill="#1F1700" transform="translate(336,223)"/>
<path d="M0 0 C2.97 0 5.94 0 9 0 C9 0.99 9 1.98 9 3 C6.03 3 3.06 3 0 3 C0 2.01 0 1.02 0 0 Z " fill="#000200" transform="translate(270,83)"/>
<path d="M0 0 C1.81242052 -0.02687279 3.62495233 -0.04633715 5.4375 -0.0625 C6.44683594 -0.07410156 7.45617187 -0.08570312 8.49609375 -0.09765625 C11 0 11 0 12 1 C12.04063832 2.66617115 12.042721 4.33388095 12 6 C11.01 6.495 11.01 6.495 10 7 C9.34 5.35 8.68 3.7 8 2 C5.36 1.67 2.72 1.34 0 1 C0 0.67 0 0.34 0 0 Z " fill="#284E17" transform="translate(269,80)"/>
<path d="M0 0 C0 2.64 0 5.28 0 8 C-0.99 8 -1.98 8 -3 8 C-3 5.69 -3 3.38 -3 1 C-1 0 -1 0 0 0 Z " fill="#41786C" transform="translate(137,32)"/>
<path d="M0 0 C0.99 0.33 1.98 0.66 3 1 C2.51917969 1.38800781 2.03835937 1.77601563 1.54296875 2.17578125 C-0.45749498 4.54088647 -0.48876068 6.12691453 -0.6875 9.1875 C-0.75324219 10.08855469 -0.81898438 10.98960937 -0.88671875 11.91796875 C-0.94279297 12.94857422 -0.94279297 12.94857422 -1 14 C-1.33 14 -1.66 14 -2 14 C-2.05410687 12.22950311 -2.09284119 10.45853151 -2.125 8.6875 C-2.14820313 7.70136719 -2.17140625 6.71523437 -2.1953125 5.69921875 C-2 3 -2 3 0 0 Z " fill="#051406" transform="translate(214,235)"/>
</svg>
